<?xml version="1.0" standalone="no"?>
<!DOCTYPE svg PUBLIC "-//W3C//DTD SVG 20010904//EN"
 "http://www.w3.org/TR/2001/REC-SVG-20010904/DTD/svg10.dtd">
<svg version="1.0" xmlns="http://www.w3.org/2000/svg"
 width="512.000000pt" height="512.000000pt" viewBox="0 0 512.000000 512.000000"
 preserveAspectRatio="xMidYMid meet">
<metadata>
Created by potrace 1.14, written by Peter Selinger 2001-2017
</metadata>
<g transform="translate(0.000000,512.000000) scale(0.100000,-0.100000)"
fill="#000000" stroke="none">
<path d="M2320 4319 c-58 -5 -114 -13 -125 -18 -11 -5 -40 -12 -64 -16 -48 -6
-165 -40 -193 -56 -10 -5 -22 -9 -28 -9 -47 0 -336 -156 -450 -243 -178 -137
-210 -175 -210 -255 0 -46 -5 -58 -52 -119 -100 -132 -230 -360 -252 -443 -4
-14 -11 -34 -16 -45 -17 -38 -51 -175 -70 -282 0 -2 -31 -23 -68 -47 -125 -82
-192 -203 -192 -344 0 -58 -4 -80 -17 -95 -13 -14 -19 -40 -21 -96 -7 -150 45
-339 103 -377 14 -9 29 -33 35 -56 17 -59 46 -107 103 -166 86 -89 186 -131
310 -132 66 0 83 4 118 26 64 40 73 74 54 192 -9 53 -20 129 -26 167 -5 39
-14 79 -19 90 -5 11 -13 54 -19 95 -13 98 -38 245 -50 295 -5 22 -15 81 -21
130 -6 50 -15 99 -20 110 -5 11 -11 45 -15 76 -8 70 -35 115 -82 136 -21 10
-39 18 -41 19 -4 2 18 107 28 129 5 11 15 43 24 70 24 81 42 125 83 205 57
109 61 115 141 222 39 54 72 101 72 103 0 3 -6 5 -13 5 -23 0 -72 59 -60 71 7
7 12 4 16 -13 4 -14 24 -33 50 -47 70 -38 116 -26 204 54 68 62 255 195 274
195 5 0 26 10 47 23 65 41 274 120 320 122 7 0 16 5 20 10 4 6 27 10 52 10 25
1 77 7 115 14 121 22 427 -2 550 -43 25 -9 51 -16 58 -16 18 0 49 -14 211 -95
155 -77 202 -109 309 -204 80 -70 124 -94 171 -90 17 2 37 0 44 -5 14 -9 137
-174 165 -221 9 -16 38 -73 63 -125 25 -52 49 -102 53 -110 5 -9 12 -31 16
-50 4 -19 11 -39 15 -45 4 -5 13 -37 19 -70 7 -33 17 -73 23 -89 9 -23 9 -31
-3 -40 -29 -22 -47 -64 -54 -122 -3 -32 -10 -68 -15 -79 -5 -11 -16 -67 -24
-125 -18 -114 -49 -299 -72 -425 -18 -98 -39 -217 -56 -312 -12 -67 -18 -78
-96 -177 -172 -218 -373 -365 -667 -486 -82 -33 -170 -56 -322 -82 l-63 -11 0
-65 c0 -62 1 -64 23 -58 12 3 63 13 112 21 88 15 180 38 220 55 11 5 31 12 45
15 25 7 37 12 143 59 32 14 60 26 62 26 11 0 197 118 250 159 119 91 263 232
318 311 15 21 17 22 48 6 67 -34 210 -14 314 44 85 46 178 165 199 251 3 15
17 34 30 42 58 39 111 226 104 373 -2 60 -8 87 -20 101 -14 15 -18 38 -18 101
0 45 -4 90 -9 100 -5 9 -17 37 -27 62 -41 98 -129 180 -237 220 -57 21 -60 26
-72 90 -11 61 -51 191 -88 285 -47 118 -168 320 -250 419 -37 43 -40 53 -38
96 3 65 -13 93 -101 171 -94 84 -136 114 -145 105 -4 -4 -1 -12 7 -17 13 -9
13 -10 0 -6 -8 2 -15 11 -15 21 0 17 -41 55 -59 56 -5 0 -23 11 -40 24 -38 29
-250 132 -291 142 -16 4 -34 10 -40 14 -5 5 -37 16 -70 25 -255 70 -442 87
-725 64z m-217 -66 c-7 -2 -19 -2 -25 0 -7 3 -2 5 12 5 14 0 19 -2 13 -5z
m-183 -47 c0 -3 -4 -8 -10 -11 -5 -3 -10 -1 -10 4 0 6 5 11 10 11 6 0 10 -2
10 -4z m1845 -586 c-16 -17 -35 -30 -44 -30 -8 0 3 15 25 34 47 41 59 38 19
-4z m-2295 0 c-8 -5 -19 -10 -25 -10 -5 0 -3 5 5 10 8 5 20 10 25 10 6 0 3 -5
-5 -10z"/>
<path d="M2500 3800 c0 -136 10 -123 -104 -135 -314 -35 -581 -228 -662 -480
-31 -95 -38 -254 -15 -345 61 -249 269 -392 704 -485 l77 -17 0 -204 0 -203
-32 5 c-141 26 -258 147 -258 266 l0 28 -280 0 -280 0 0 -52 c0 -29 9 -94 19
-145 69 -336 334 -537 759 -579 l72 -7 0 -123 0 -124 85 0 85 0 0 125 0 125
28 0 c64 0 230 32 315 60 294 98 457 312 457 600 0 278 -151 483 -441 599 -74
30 -305 91 -341 91 -17 0 -18 15 -18 196 l0 196 33 -7 c80 -18 147 -83 167
-164 l12 -51 279 0 279 0 0 35 c0 70 -31 191 -70 270 -92 190 -287 329 -532
379 -42 9 -90 16 -107 16 -60 0 -61 1 -61 131 l0 119 -85 0 -85 0 0 -120z m0
-780 c0 -118 -3 -170 -11 -170 -27 0 -134 67 -150 95 -23 37 -25 115 -4 155
16 32 55 62 100 78 68 24 65 30 65 -158z m275 -769 c27 -15 58 -40 69 -54 28
-37 32 -114 8 -157 -22 -41 -93 -88 -145 -97 l-37 -6 0 178 0 177 28 -7 c15
-3 49 -19 77 -34z"/>
<path d="M2305 1091 c-34 -14 -77 -64 -72 -83 3 -10 1 -16 -3 -13 -12 7 -22
-30 -18 -68 4 -52 39 -110 78 -129 29 -15 63 -18 212 -18 l176 0 4 51 c1 28 1
52 -2 54 -3 2 -3 51 0 109 l5 106 -180 -1 c-99 0 -189 -4 -200 -8z"/>
</g>
</svg>
